<svg width="32" height="32" viewBox="0 0 32 32" fill="none" xmlns="http://www.w3.org/2000/svg">
  <!-- GuardFlow Logo - Carrinho com Cruz Verde e Arco Colorido -->
  
  <!-- Carrinho Base (Azul) -->
  <rect x="4" y="12" width="20" height="12" rx="2" fill="#2563eb" stroke="#1d4ed8" stroke-width="1"/>
  <rect x="6" y="14" width="16" height="8" rx="1" fill="#3b82f6"/>
  
  <!-- Rodas do Carrinho -->
  <circle cx="8" cy="26" r="2" fill="#1d4ed8"/>
  <circle cx="20" cy="26" r="2" fill="#1d4ed8"/>
  
  <!-- Alça do Carrinho -->
  <path d="M2 12 L4 12 L4 8 C4 6.9 4.9 6 6 6 L10 6" stroke="#2563eb" stroke-width="2" fill="none" stroke-linecap="round"/>
  
  <!-- Cruz Verde (ESG) -->
  <rect x="14" y="8" width="2" height="8" rx="1" fill="#10b981"/>
  <rect x="11" y="11" width="8" height="2" rx="1" fill="#10b981"/>
  
  <!-- Arco Colorido (Transformação) -->
  <path d="M8 4 Q16 0 24 4" stroke="url(#rainbow)" stroke-width="2" fill="none" stroke-linecap="round"/>
  
  <!-- Gradiente Arco-íris -->
  <defs>
    <linearGradient id="rainbow" x1="0%" y1="0%" x2="100%" y2="0%">
      <stop offset="0%" style="stop-color:#ef4444"/>
      <stop offset="16.66%" style="stop-color:#f97316"/>
      <stop offset="33.33%" style="stop-color:#eab308"/>
      <stop offset="50%" style="stop-color:#22c55e"/>
      <stop offset="66.66%" style="stop-color:#3b82f6"/>
      <stop offset="83.33%" style="stop-color:#8b5cf6"/>
      <stop offset="100%" style="stop-color:#ec4899"/>
    </linearGradient>
  </defs>
  
  <!-- Pontos de Brilho -->
  <circle cx="12" cy="16" r="1" fill="#ffffff" opacity="0.8"/>
  <circle cx="18" cy="18" r="1" fill="#ffffff" opacity="0.6"/>
  <circle cx="15" cy="20" r="0.5" fill="#ffffff" opacity="0.9"/>
</svg>
